<?xml version="1.0" encoding="utf-8"?>
<!-- Generator: Adobe Illustrator 24.2.0, SVG Export Plug-In . SVG Version: 6.00 Build 0)  -->
<svg version="1.1" xmlns="http://www.w3.org/2000/svg" xmlns:xlink="http://www.w3.org/1999/xlink" x="0px" y="0px"
	 viewBox="0 0 1000 1000" style="enable-background:new 0 0 1000 1000;" xml:space="preserve">
<style type="text/css">
	.st0{display:none;}
	.st1{display:inline;fill:#1F1F1F;}
	.st2{fill:url(#SVGID_1_);}
	.st3{fill:url(#SVGID_2_);}
	.st4{fill:url(#SVGID_3_);}
	.st5{fill:#EBEBEB;}
	.st6{fill:#FFFFFF;}
	.st7{fill:#264DE4;}
	.st8{fill:#2965F1;}
</style>
<g id="레이어_2" class="st0">
	<rect class="st1" width="1000" height="1000"/>
</g>
<g id="레이어_1">
	<linearGradient id="SVGID_1_" gradientUnits="userSpaceOnUse" x1="499.7325" y1="485.8797" x2="499.7325" y2="513.0437">
		<stop  offset="0" style="stop-color:#FF9B2A"/>
		<stop  offset="1" style="stop-color:#FF4215"/>
	</linearGradient>
	<path class="st2" d="M499.5,499.5c0.2,0,0.4,0,0.5,0C499.8,499.5,499.6,499.5,499.5,499.5L499.5,499.5z"/>
	<linearGradient id="SVGID_2_" gradientUnits="userSpaceOnUse" x1="499.7325" y1="485.8797" x2="499.7325" y2="513.0437">
		<stop  offset="0" style="stop-color:#FFFFFF"/>
		<stop  offset="1" style="stop-color:#E6E6E6"/>
	</linearGradient>
	<path class="st3" d="M499.5,499.5c0.2,0,0.4,0,0.5,0C499.8,499.5,499.6,499.5,499.5,499.5L499.5,499.5z"/>
	<g>
		
			<image style="overflow:visible;opacity:0.23;" width="930" height="930" xlink:href="3EF20385BA640CA8.png"  transform="matrix(1 0 0 1 35 48)">
		</image>
		<g>
			<linearGradient id="SVGID_3_" gradientUnits="userSpaceOnUse" x1="116.8806" y1="116.8806" x2="883.1194" y2="883.1194">
				<stop  offset="0" style="stop-color:#2965F1"/>
				<stop  offset="1" style="stop-color:#264DE4"/>
			</linearGradient>
			<path class="st4" d="M256.1,59.2h487.8c108.7,0,196.9,88.1,196.9,196.9v487.8c0,108.7-88.1,196.9-196.9,196.9H256.1
				c-108.7,0-196.9-88.1-196.9-196.9V256.1C59.2,147.4,147.4,59.2,256.1,59.2z"/>
		</g>
	</g>
	<g>
		
			<image style="overflow:visible;opacity:0.2;" width="524" height="587" xlink:href="3EF20385BA640CA9.png"  transform="matrix(1 0 0 1 248 241)">
		</image>
		<g>
			<g>
				<polygon id="polygon2993_13_" class="st5" points="271.6,445.1 280.4,543.3 500.3,543.3 500.3,445.1 				"/>
				<polygon id="polygon2995_13_" class="st5" points="500.3,246.2 500,246.2 253.9,246.2 262.9,344.5 500.3,344.5 				"/>
				<polygon id="polygon2997_13_" class="st5" points="500.3,802.4 500.3,700.2 499.9,700.3 390.4,670.8 383.5,592.4 330.3,592.4 
					284.8,592.4 298.6,746.7 499.8,802.5 				"/>
				<polygon id="polygon3005_13_" class="st6" points="620.9,543.3 609.5,670.7 500,700.3 500,802.5 701.4,746.7 702.8,730.1 
					725.9,471.4 728.3,445.1 746.1,246.2 500,246.2 500,344.5 638.4,344.5 629.4,445.1 500,445.1 500,543.3 				"/>
			</g>
		</g>
	</g>
</g>
</svg>
