<?xml version="1.0" encoding="utf-8"?>
<!-- Generator: Adobe Illustrator 24.2.0, SVG Export Plug-In . SVG Version: 6.00 Build 0)  -->
<svg version="1.1" xmlns="http://www.w3.org/2000/svg" xmlns:xlink="http://www.w3.org/1999/xlink" x="0px" y="0px"
	 viewBox="0 0 881.6 881.6" style="enable-background:new 0 0 881.6 881.6;" xml:space="preserve">
<style type="text/css">
	.st0{display:none;}
	.st1{display:inline;fill:#1F1F1F;}
	.st2{fill:url(#SVGID_1_);}
	.st3{fill:url(#SVGID_2_);}
	.st4{fill:url(#SVGID_3_);}
	.st5{fill:#EBEBEB;}
	.st6{fill:#FFFFFF;}
	.st7{fill:#264DE4;}
	.st8{fill:#2965F1;}
</style>
<g id="레이어_2" class="st0">
	<rect x="-59.2" y="-59.2" class="st1" width="1000" height="1000"/>
</g>
<g id="레이어_1">
	<linearGradient id="SVGID_1_" gradientUnits="userSpaceOnUse" x1="440.5083" y1="426.6555" x2="440.5083" y2="453.8195">
		<stop  offset="0" style="stop-color:#FF9B2A"/>
		<stop  offset="1" style="stop-color:#FF4215"/>
	</linearGradient>
	<path class="st2" d="M440.2,440.2c0.2,0,0.4,0,0.5,0C440.6,440.2,440.4,440.2,440.2,440.2L440.2,440.2z"/>
	<linearGradient id="SVGID_2_" gradientUnits="userSpaceOnUse" x1="440.5083" y1="426.6555" x2="440.5083" y2="453.8195">
		<stop  offset="0" style="stop-color:#FFFFFF"/>
		<stop  offset="1" style="stop-color:#E6E6E6"/>
	</linearGradient>
	<path class="st3" d="M440.2,440.2c0.2,0,0.4,0,0.5,0C440.6,440.2,440.4,440.2,440.2,440.2L440.2,440.2z"/>
	<g>
		<linearGradient id="SVGID_3_" gradientUnits="userSpaceOnUse" x1="57.6564" y1="57.6564" x2="823.8952" y2="823.8952">
			<stop  offset="0" style="stop-color:#2965F1"/>
			<stop  offset="1" style="stop-color:#264DE4"/>
		</linearGradient>
		<path class="st4" d="M196.9,0h487.8c108.7,0,196.9,88.1,196.9,196.9v487.8c0,108.7-88.1,196.9-196.9,196.9H196.9
			C88.1,881.6,0,793.4,0,684.7V196.9C0,88.1,88.1,0,196.9,0z"/>
	</g>
	<g>
		
			<image style="overflow:visible;opacity:0.2;" width="524" height="587" xlink:href="3EF20385BA640CAB.png"  transform="matrix(1 0 0 1 188.7758 181.7758)">
		</image>
		<g>
			<g>
				<polygon id="polygon2993_13_" class="st5" points="212.4,385.8 221.2,484.1 441.1,484.1 441.1,385.8 				"/>
				<polygon id="polygon2995_13_" class="st5" points="441.1,187 440.7,187 194.7,187 203.7,285.2 441.1,285.2 				"/>
				<polygon id="polygon2997_13_" class="st5" points="441.1,743.2 441.1,641 440.6,641.1 331.2,611.6 324.2,533.2 271.1,533.2 
					225.6,533.2 239.4,687.5 440.6,743.3 				"/>
				<polygon id="polygon3005_13_" class="st6" points="561.7,484.1 550.3,611.5 440.7,641.1 440.7,743.3 642.1,687.5 643.6,670.9 
					666.7,412.2 669.1,385.8 686.8,187 440.7,187 440.7,285.2 579.2,285.2 570.2,385.8 440.7,385.8 440.7,484.1 				"/>
			</g>
		</g>
	</g>
</g>
</svg>
