<?xml version="1.0" encoding="utf-8"?>
<!-- Generator: Adobe Illustrator 24.2.0, SVG Export Plug-In . SVG Version: 6.00 Build 0)  -->
<svg version="1.1" xmlns="http://www.w3.org/2000/svg" xmlns:xlink="http://www.w3.org/1999/xlink" x="0px" y="0px"
	 viewBox="0 0 881.6 881.6" style="enable-background:new 0 0 881.6 881.6;" xml:space="preserve">
<style type="text/css">
	.st0{display:none;}
	.st1{display:inline;fill:#1F1F1F;}
	.st2{fill:url(#SVGID_1_);}
	.st3{fill:url(#SVGID_2_);}
	.st4{fill:url(#SVGID_3_);}
	.st5{fill:#FFFFFF;}
	.st6{fill:#264DE4;}
	.st7{fill:#2965F1;}
	.st8{fill:#EBEBEB;}
</style>
<g id="레이어_2" class="st0">
	<rect x="-59.2" y="-59.2" class="st1" width="1000" height="1000"/>
</g>
<g id="레이어_1">
	<linearGradient id="SVGID_1_" gradientUnits="userSpaceOnUse" x1="440.5083" y1="426.6555" x2="440.5083" y2="453.8195">
		<stop  offset="0" style="stop-color:#FF9B2A"/>
		<stop  offset="1" style="stop-color:#FF4215"/>
	</linearGradient>
	<path class="st2" d="M440.2,440.2c0.2,0,0.4,0,0.5,0C440.6,440.2,440.4,440.2,440.2,440.2L440.2,440.2z"/>
	<linearGradient id="SVGID_2_" gradientUnits="userSpaceOnUse" x1="440.5083" y1="426.6555" x2="440.5083" y2="453.8195">
		<stop  offset="0" style="stop-color:#FFFFFF"/>
		<stop  offset="1" style="stop-color:#E6E6E6"/>
	</linearGradient>
	<path class="st3" d="M440.2,440.2c0.2,0,0.4,0,0.5,0C440.6,440.2,440.4,440.2,440.2,440.2L440.2,440.2z"/>
	<g>
		<linearGradient id="SVGID_3_" gradientUnits="userSpaceOnUse" x1="57.6564" y1="57.6564" x2="823.8952" y2="823.8952">
			<stop  offset="0" style="stop-color:#2965F1"/>
			<stop  offset="1" style="stop-color:#264DE4"/>
		</linearGradient>
		<path class="st4" d="M196.9,0h487.8c108.7,0,196.9,88.1,196.9,196.9v487.8c0,108.7-88.1,196.9-196.9,196.9H196.9
			C88.1,881.6,0,793.4,0,684.7V196.9C0,88.1,88.1,0,196.9,0z"/>
	</g>
	<g>
		
			<image style="overflow:visible;opacity:0.2;" width="524" height="587" xlink:href="4A6E65F892D3B940.png"  transform="matrix(1 0 0 1 188.7758 181.7758)">
		</image>
		<g>
			<polygon class="st5" points="441.1,187 440.7,187 194.7,187 203.7,285.2 440.7,285.2 441.1,285.2 579.2,285.2 570.2,385.8 
				441.1,385.8 440.7,385.8 212.4,385.8 221.2,484.1 440.7,484.1 441.1,484.1 561.7,484.1 550.3,611.5 440.7,641.1 440.7,641.1 
				440.6,641.1 331.2,611.6 324.2,533.2 271.1,533.2 225.6,533.2 239.4,687.5 440.6,743.3 441.1,743.2 441.1,743.2 642.1,687.5 
				643.6,670.9 666.7,412.2 669.1,385.8 686.8,187 			"/>
		</g>
	</g>
	<g id="layer1" transform="translate(-193.633,-276.3622)">
		<g id="g3013" transform="translate(119,276.3622)">
			<polygon id="polygon2989" class="st6" points="-121.1,-32.2 -171.3,530.1 -396.9,592.7 -621.9,530.2 -672.1,-32.2 			"/>
			<polygon id="polygon2991" class="st7" points="-214.3,494.3 -171.4,13.8 -396.6,13.8 -396.6,544.9 			"/>
			<polygon id="polygon2993_1_" class="st8" points="-557.1,222.4 -550.9,291.4 -396.6,291.4 -396.6,222.4 			"/>
			<polygon id="polygon2995_1_" class="st8" points="-396.6,82.8 -396.8,82.8 -569.5,82.8 -563.3,151.8 -396.6,151.8 			"/>
			<polygon id="polygon2997_1_" class="st8" points="-396.6,473.3 -396.6,401.5 -396.9,401.6 -473.7,380.9 -478.6,325.9 
				-515.9,325.9 -547.9,325.9 -538.2,434.1 -396.9,473.4 			"/>
			<path id="path2999" d="M-542.4-185h83.5v34.9h-48.6v34.9h48.6v34.9h-83.5V-185z"/>
			<path id="path3001" d="M-442.2-185h83.5v30.4h-48.6v6.1h48.6v69.9h-83.5v-31.9h48.6v-6.1h-48.6V-185z"/>
			<path id="path3003" d="M-341.9-185h83.5v30.4H-307v6.1h48.6v69.9h-83.5v-31.9h48.6v-6.1h-48.6V-185z"/>
			<polygon id="polygon3005_1_" class="st5" points="-311.9,291.4 -319.9,380.8 -396.8,401.6 -396.8,473.3 -255.4,434.1 
				-254.4,422.5 -238.2,240.9 -236.5,222.4 -224,82.8 -396.8,82.8 -396.8,151.8 -299.6,151.8 -305.9,222.4 -396.8,222.4 
				-396.8,291.4 			"/>
		</g>
	</g>
	<polygon id="polygon2993" class="st8" points="212.4,385.8 221.2,484.1 441.1,484.1 441.1,385.8 	"/>
	<polygon id="polygon2995" class="st8" points="441.1,187 440.7,187 194.7,187 203.7,285.2 441.1,285.2 	"/>
	<polygon id="polygon2997" class="st8" points="441.1,743.2 441.1,641 440.6,641.1 331.2,611.6 324.2,533.2 271.1,533.2 
		225.6,533.2 239.4,687.5 440.6,743.3 	"/>
</g>
</svg>
